<svg xmlns="http://www.w3.org/2000/svg" width="27.681" height="27.681" viewBox="0 0 27.681 27.681">
  <path id="Icon_awesome-check-circle" data-name="Icon awesome-check-circle" d="M28.244,14.4A13.841,13.841,0,1,1,14.4.563,13.84,13.84,0,0,1,28.244,14.4ZM12.8,21.731,23.071,11.463a.893.893,0,0,0,0-1.263L21.808,8.937a.893.893,0,0,0-1.263,0l-8.375,8.375L8.261,13.4A.893.893,0,0,0,7,13.4L5.735,14.665a.893.893,0,0,0,0,1.263l5.8,5.8a.893.893,0,0,0,1.263,0Z" transform="translate(-0.563 -0.563)" fill="#492922"/>
</svg>
